<svg data-v-fde0c5aa="" xmlns="http://www.w3.org/2000/svg" viewBox="0 0 300 300" class="font"><!----><defs data-v-fde0c5aa=""><!----></defs><rect data-v-fde0c5aa="" fill="transparent" x="0" y="0" width="300px" height="300px" class="logo-background-square"></rect><defs data-v-fde0c5aa=""><linearGradient data-v-fde0c5aa="" gradientTransform="rotate(25)" id="0c33582a-3d89-43f7-b036-7afbc51ae9e4" x1="0%" y1="0%" x2="100%" y2="0%"><stop data-v-fde0c5aa="" offset="0%" stop-color="#41E296" stop-opacity="1"></stop><stop data-v-fde0c5aa="" offset="100%" stop-color="#00C4EE" stop-opacity="1"></stop></linearGradient></defs><g data-v-fde0c5aa="" id="11981686-3918-4b7f-8d85-5d5b9abf1102" fill="url(#0c33582a-3d89-43f7-b036-7afbc51ae9e4)" transform="matrix(1.9864559819413092,0,0,1.9864559819413092,39.60270879769164,140.08758451276654)"><path d="M0.20 10.50L2.93-0.45L6.05-0.45L8.78 10.50L6.36 10.50L5.82 8.15L3.15 8.15L2.63 10.50L0.20 10.50ZM5.38 6.19L4.48 2.17L3.58 6.19L5.38 6.19ZM13.71 2.90L13.71 2.90Q13.86 2.90 13.92 2.91L13.92 2.91L13.92 5.04L13.54 5.04Q12.39 5.04 11.94 5.68L11.94 5.68L11.94 10.50L9.73 10.50L9.73 5.18L9.60 3.08L11.58 3.08L11.73 3.95Q12.47 2.90 13.71 2.90ZM17.98 0.98L17.98 3.08L19.88 3.08L19.88 5.01L17.98 5.01L17.98 7.69Q17.98 8.33 18.24 8.55Q18.51 8.78 19.07 8.78L19.07 8.78Q19.54 8.78 19.74 8.68L19.74 8.68L19.74 10.50Q19.42 10.68 18.55 10.68L18.55 10.68Q15.76 10.68 15.76 7.92L15.76 7.92L15.76 5.01L14.63 5.01L14.63 3.08L15.76 3.08L15.76 0.98L17.98 0.98ZM26.04 4.76L26.04 5.32Q26.04 7.07 26.43 7.90Q26.81 8.72 27.85 8.72L27.85 8.72L27.97 8.72Q29.48 8.72 29.48 6.78L29.48 6.78L31.75 6.78L31.75 6.90Q31.75 8.89 30.79 9.79Q29.82 10.68 27.85 10.68L27.85 10.68Q25.70 10.68 24.72 9.41Q23.74 8.15 23.74 5.32L23.74 5.32L23.74 4.76Q23.74 1.93 24.72 0.66Q25.70-0.60 27.85-0.60L27.85-0.60Q29.83-0.60 30.79 0.30Q31.75 1.20 31.75 3.22L31.75 3.22L31.75 3.72L29.48 3.72Q29.48 2.52 29.16 1.94Q28.83 1.36 27.97 1.36L27.97 1.36L27.85 1.36Q26.81 1.36 26.43 2.18Q26.04 3.01 26.04 4.76L26.04 4.76ZM36.19 10.68L36.19 10.68Q34.47 10.68 33.59 9.70Q32.72 8.72 32.72 7.04L32.72 7.04L32.72 6.54Q32.72 4.86 33.59 3.88Q34.47 2.90 36.19 2.90L36.19 2.90Q37.93 2.90 38.79 3.88Q39.66 4.86 39.66 6.54L39.66 6.54L39.66 7.04Q39.66 8.72 38.79 9.70Q37.93 10.68 36.19 10.68ZM34.93 7.04Q34.93 8.78 36.19 8.78Q37.45 8.78 37.45 7.04L37.45 7.04L37.45 6.54Q37.45 4.80 36.19 4.80Q34.93 4.80 34.93 6.54L34.93 6.54L34.93 7.04ZM44.81 2.90L44.81 2.90Q44.97 2.90 45.02 2.91L45.02 2.91L45.02 5.04L44.65 5.04Q43.50 5.04 43.05 5.68L43.05 5.68L43.05 10.50L40.84 10.50L40.84 5.18L40.71 3.08L42.69 3.08L42.84 3.95Q43.58 2.90 44.81 2.90ZM52.84 6.59L52.84 7.59L48.10 7.59Q48.16 8.34 48.51 8.67Q48.86 9.00 49.50 9.00L49.50 9.00Q50.06 9.00 50.41 8.74Q50.75 8.47 50.75 8.12L50.75 8.12L52.84 8.12L52.84 8.18Q52.84 9.27 51.95 9.97Q51.06 10.68 49.49 10.68L49.49 10.68Q47.71 10.68 46.80 9.67Q45.89 8.67 45.89 6.99L45.89 6.99L45.89 6.59Q45.89 4.93 46.80 3.91Q47.71 2.90 49.41 2.90Q51.10 2.90 51.97 3.91Q52.84 4.91 52.84 6.59L52.84 6.59ZM50.61 5.99Q50.51 4.58 49.36 4.58Q48.22 4.58 48.12 5.99L48.12 5.99L50.61 5.99ZM62.68-0.42L64.83-0.42L64.83 10.50L62.44 10.50L58.91 3.72L58.98 5.92L58.98 10.50L56.84 10.50L56.84-0.42L59.23-0.42L62.75 6.36L62.68 4.16L62.68-0.42ZM72.98 6.59L72.98 7.59L68.25 7.59Q68.31 8.34 68.66 8.67Q69.01 9.00 69.65 9.00L69.65 9.00Q70.21 9.00 70.55 8.74Q70.90 8.47 70.90 8.12L70.90 8.12L72.98 8.12L72.98 8.18Q72.98 9.27 72.09 9.97Q71.20 10.68 69.64 10.68L69.64 10.68Q67.86 10.68 66.95 9.67Q66.04 8.67 66.04 6.99L66.04 6.99L66.04 6.59Q66.04 4.93 66.95 3.91Q67.86 2.90 69.55 2.90Q71.25 2.90 72.11 3.91Q72.98 4.91 72.98 6.59L72.98 6.59ZM70.76 5.99Q70.66 4.58 69.51 4.58Q68.36 4.58 68.26 5.99L68.26 5.99L70.76 5.99ZM77.01 0.98L77.01 3.08L78.92 3.08L78.92 5.01L77.01 5.01L77.01 7.69Q77.01 8.33 77.28 8.55Q77.55 8.78 78.11 8.78L78.11 8.78Q78.58 8.78 78.78 8.68L78.78 8.68L78.78 10.50Q78.46 10.68 77.59 10.68L77.59 10.68Q74.80 10.68 74.80 7.92L74.80 7.92L74.80 5.01L73.67 5.01L73.67 3.08L74.80 3.08L74.80 0.98L77.01 0.98ZM85.83 10.50L84.80 5.39L83.76 10.50L80.98 10.50L79.70 3.08L81.87 3.08L82.43 8.11L83.47 3.08L86.11 3.08L87.16 8.11L87.72 3.08L89.89 3.08L88.61 10.50L85.83 10.50ZM94.05 10.68L94.05 10.68Q92.33 10.68 91.46 9.70Q90.58 8.72 90.58 7.04L90.58 7.04L90.58 6.54Q90.58 4.86 91.46 3.88Q92.33 2.90 94.05 2.90L94.05 2.90Q95.79 2.90 96.66 3.88Q97.52 4.86 97.52 6.54L97.52 6.54L97.52 7.04Q97.52 8.72 96.66 9.70Q95.79 10.68 94.05 10.68ZM92.79 7.04Q92.79 8.78 94.05 8.78Q95.31 8.78 95.31 7.04L95.31 7.04L95.31 6.54Q95.31 4.80 94.05 4.80Q92.79 4.80 92.79 6.54L92.79 6.54L92.79 7.04ZM102.68 2.90L102.68 2.90Q102.83 2.90 102.89 2.91L102.89 2.91L102.89 5.04L102.51 5.04Q101.36 5.04 100.91 5.68L100.91 5.68L100.91 10.50L98.70 10.50L98.70 5.18L98.57 3.08L100.55 3.08L100.70 3.95Q101.44 2.90 102.68 2.90ZM106.25 10.50L104.03 10.50L104.03-0.70L106.25-0.70L106.25 5.60L108.30 3.08L110.95 3.08L108.50 5.89L110.95 10.50L108.37 10.50L106.97 7.64L106.25 8.48L106.25 10.50Z"></path></g><!----><!----></svg>